<?xml version="1.0" encoding="utf-8"?>
<!-- Generator: Adobe Illustrator 17.1.0, SVG Export Plug-In . SVG Version: 6.00 Build 0)  -->
<!DOCTYPE svg PUBLIC "-//W3C//DTD SVG 1.0//EN" "http://www.w3.org/TR/2001/REC-SVG-20010904/DTD/svg10.dtd">
<svg version="1.0" id="レイヤー_1" xmlns="http://www.w3.org/2000/svg" xmlns:xlink="http://www.w3.org/1999/xlink" x="0px"
	 y="0px" viewBox="0 0 259.6 117.6" enable-background="new 0 0 259.6 117.6" xml:space="preserve">
<g>
	<g>
		<g>
			<path fill-rule="evenodd" clip-rule="evenodd" fill="#BEDFC2" d="M29,66.5c-4.7,0-8.5-3.8-8.5-8.5l0,0c0-1.6,0.4-3.1,1.2-4.4l0,0
				h-18c-1.3,0-2.5-0.7-3.1-1.8l0,0C0.2,51.3,0,50.6,0,49.9l0,0c0-0.6,0.1-1.1,0.4-1.7l0,0L23.3,3.2c0.6-1.2,1.9-2,3.3-2l0,0l15.2,0
				c1.4,0,2.7,0.8,3.3,2l0,0l4.4,8.6v-4c0,0,0-0.1,0-0.4l0,0c0-0.3-0.1-0.8-0.3-1.5l0,0C49,5.5,49,5.2,49,4.9l0,0
				c0-0.8,0.3-1.6,0.8-2.3l0,0c0.7-0.9,1.8-1.4,2.9-1.4l0,0H104c1.2,0,2.3,0.5,3,1.5l0,0c0.2,0.2,0.3,0.4,0.4,0.7l0,0
				C112,1.1,117.6,0,123.9,0l0,0c7.3,0,13.4,1.1,18.1,3.5l0,0c0.6-1.3,1.9-2.3,3.4-2.3l0,0h60.4c1.7,0,3.1,1.1,3.5,2.6l0,0
				c5-2.5,11.1-3.8,18.1-3.8l0,0c9.7,0,17.6,2.4,23.4,7.2l0,0L250.2,8l0.6-0.7c5.9,4.9,8.9,11.8,8.9,20.2l0,0c0,8.4-3,15.3-8.9,20.2
				l0,0c-3.5,2.9-7.8,4.9-12.7,6l0,0c0.7,1.2,1.2,2.7,1.2,4.3l0,0c0,4.7-3.8,8.5-8.5,8.5l0,0H29L29,66.5z"/>
		</g>
	</g>
	<path fill-rule="evenodd" clip-rule="evenodd" fill="#E64290" d="M29,66.5c-4.7,0-8.5-3.8-8.5-8.5l0,0c0-1.6,0.4-3.1,1.2-4.4l0,0
		h-18c-1.3,0-2.5-0.7-3.1-1.8l0,0C0.2,51.3,0,50.6,0,49.9l0,0c0-0.6,0.1-1.1,0.4-1.7l0,0L23.3,3.2c0.6-1.2,1.9-2,3.3-2l0,0l15.2,0
		c1.4,0,2.7,0.8,3.3,2l0,0l4.4,8.6v-4c0,0,0-0.1,0-0.4l0,0c0-0.3-0.1-0.8-0.3-1.5l0,0C49,5.5,49,5.2,49,4.9l0,0
		c0-0.8,0.3-1.6,0.8-2.3l0,0c0.7-0.9,1.8-1.4,2.9-1.4l0,0H104c1.2,0,2.3,0.5,3,1.5l0,0c0.2,0.2,0.3,0.4,0.4,0.7l0,0
		C112,1.1,117.6,0,123.9,0l0,0c7.3,0,13.4,1.1,18.1,3.5l0,0c0.6-1.3,1.9-2.3,3.4-2.3l0,0h60.4c1.7,0,3.1,1.1,3.5,2.6l0,0
		c5-2.5,11.1-3.8,18.1-3.8l0,0c9.7,0,17.6,2.4,23.4,7.2l0,0L250.2,8l0.6-0.7c5.9,4.9,8.9,11.8,8.9,20.2l0,0c0,8.4-3,15.3-8.9,20.2
		l0,0c-3.5,2.9-7.8,4.9-12.7,6l0,0c0.7,1.2,1.2,2.7,1.2,4.3l0,0c0,4.7-3.8,8.5-8.5,8.5l0,0H29L29,66.5z M53.2,32.5v-5.4L41.8,4.8
		H26.6L3.7,49.9H23c-0.3-1.1-0.2-2.3,0.4-3.6l2.4-5h17.1l2.3,5c0.6,1.3,0.7,2.5,0.4,3.6h19.2l-0.5-1C56.9,46.1,53.2,40.7,53.2,32.5z
		 M30,32.1l4.2-8.9l4.2,8.9H30z M70.7,4.9c-0.3,1.3-0.5,2.3-0.5,2.8V35c0,1.6,0.8,3,2.4,4.1c1.5,1.1,3.4,1.6,5.7,1.6
		c2.2,0,4.1-0.6,5.7-1.7c1.6-1.1,2.4-2.4,2.4-4V7.7c0-0.5-0.2-1.4-0.5-2.8H70.7z M145.4,46.9c0,0.8-0.2,1.8-0.6,2.9h-9.4
		c0.3-0.6,0.4-1.1,0.4-1.5c-3.6,1.8-7.6,2.7-11.9,2.7c-8.7,0-15.6-2.3-20.7-7c-0.7-0.7-1.4-1.4-2-2.1c1.5-2.6,2.2-5.7,2.2-9.3V10.4
		c5-4.5,11.8-6.7,20.5-6.7c7.2,0,12.9,1.1,17.1,3.4c1.7,0.9,3.1,2.1,4.4,3.5v7.8h-14.9c-0.2-1.4-1-2.5-2.2-3.3
		c-1.3-0.8-2.9-1.2-4.8-1.2c-2.9,0-5.3,1.3-7,3.8c-1.8,2.6-2.6,5.8-2.6,9.7c0,3.7,1.1,6.7,3.4,9.2c2.1,2.3,4.6,3.5,7.5,3.5
		c4.7,0,7.8-1.3,9.4-3.8h-3.8c-0.5,0-1.3,0.2-2.6,0.5V26.1h17.6V46.9z M168.3,49.8L162,36v10.9c0,0.7,0.2,1.7,0.6,2.9H168.3z
		 M188.4,49.8c0.4-1.2,0.6-2.2,0.6-2.9v-11l-6.3,13.9L188.4,49.8z M164.4,4.9l11,25.7l11.4-25.7H164.4z M248.4,10.1
		c-5.1-4.2-12.1-6.3-21-6.3c-8.9,0-15.9,2.1-20.9,6.3c-0.3,0.2-0.5,0.5-0.8,0.7v33.4c0.2,0.2,0.5,0.4,0.7,0.6
		c5.1,4.2,12.1,6.3,21,6.3c8.9,0,15.9-2.1,20.9-6.3c5.1-4.2,7.6-10,7.6-17.4C255.9,20,253.4,14.3,248.4,10.1z M227.4,40.5
		c-6.8,0-10.2-4.4-10.2-13.2c0-8.8,3.4-13.2,10.2-13.2c6.8,0,10.2,4.4,10.2,13.2C237.7,36.2,234.2,40.5,227.4,40.5z M33.3,61.8h-2
		l-0.7-2.2H28l-0.7,2.2h-1.9l2.8-8.3h2.4L33.3,61.8z M30.4,58.4l-0.6-1.9c-0.2-0.5-0.3-1.2-0.4-1.7h0c-0.1,0.5-0.3,1.2-0.4,1.7
		l-0.6,1.9H30.4z M36.1,56.6c0.5-0.6,1.2-1,2.1-1c1.6,0,2.7,1.2,2.7,3.1c0,2.2-1.5,3.2-2.9,3.2c-0.8,0-1.4-0.3-1.7-0.7h0v3h-1.9
		v-6.5c0-0.8,0-1.4-0.1-2h1.6L36.1,56.6L36.1,56.6z M36.2,59.3c0,0.9,0.6,1.3,1.3,1.3c1,0,1.4-0.8,1.4-1.9c0-1.1-0.5-1.8-1.4-1.8
		c-0.7,0-1.3,0.6-1.3,1.3V59.3z M43.7,56.6c0.5-0.6,1.2-1,2.1-1c1.6,0,2.7,1.2,2.7,3.1c0,2.2-1.5,3.2-2.9,3.2
		c-0.8,0-1.4-0.3-1.7-0.7h0v3H42v-6.5c0-0.8,0-1.4-0.1-2h1.6L43.7,56.6L43.7,56.6z M43.9,59.3c0,0.9,0.6,1.3,1.3,1.3
		c1,0,1.4-0.8,1.4-1.9c0-1.1-0.5-1.8-1.4-1.8c-0.7,0-1.3,0.6-1.3,1.3V59.3z M51.6,61.8h-1.9v-8.7h1.9V61.8z M58.5,61.5
		c-0.6,0.2-1.4,0.3-2.3,0.3c-2.2,0-3.4-1.2-3.4-3c0-1.7,1.2-3.2,3.2-3.2c1.7,0,2.8,1,2.8,3c0,0.2,0,0.5,0,0.6h-4.2
		c0.1,1,0.9,1.4,1.9,1.4c0.7,0,1.2-0.1,1.7-0.2L58.5,61.5z M57.1,58.1c0-0.6-0.3-1.4-1.2-1.4c-0.9,0-1.3,0.8-1.3,1.4H57.1z
		 M72.4,58.3c0,2.4-1.4,3.6-3.6,3.6c-2.2,0-3.4-1.1-3.4-3.6v-4.9h1.9v5c0,1.5,0.6,2.1,1.6,2.1c1,0,1.6-0.6,1.6-2.1v-5h1.9V58.3z
		 M77.7,57.1c-0.3-0.1-0.8-0.3-1.3-0.3c-0.6,0-0.9,0.2-0.9,0.6c0,0.3,0.3,0.5,1.1,0.8c1.2,0.4,1.8,1,1.8,1.8c0,1.1-1,1.9-2.8,1.9
		c-0.8,0-1.5-0.2-2-0.4l0.4-1.2c0.4,0.2,1.1,0.4,1.7,0.4c0.7,0,1-0.2,1-0.6c0-0.4-0.2-0.6-1-0.8c-1.3-0.5-1.8-1.1-1.8-1.7
		c0-1.1,1-1.9,2.6-1.9c0.7,0,1.3,0.2,1.8,0.3L77.7,57.1z M84.9,61.5c-0.6,0.2-1.4,0.3-2.3,0.3c-2.2,0-3.4-1.2-3.4-3
		c0-1.7,1.2-3.2,3.2-3.2c1.7,0,2.8,1,2.8,3c0,0.2,0,0.5-0.1,0.6h-4.2c0.1,1,0.9,1.4,1.9,1.4c0.7,0,1.2-0.1,1.7-0.2L84.9,61.5z
		 M83.5,58.1c0-0.6-0.3-1.4-1.2-1.4c-0.9,0-1.3,0.8-1.3,1.4H83.5z M90.3,57.2c-0.1,0-0.3,0-0.5,0c-0.9,0-1.5,0.5-1.5,1.5v3.1h-1.9
		v-4.1c0-0.7,0-1.3-0.1-1.9H88l0.1,1h0.1c0.3-0.8,1.1-1.2,1.8-1.2c0.2,0,0.3,0,0.4,0V57.2z M103.6,61.5c-0.6,0.2-1.7,0.4-2.8,0.4
		c-1.5,0-2.6-0.3-3.4-1C96.5,60.1,96,59,96,57.7c0-2.8,2.2-4.3,5-4.3c1,0,1.8,0.2,2.3,0.3l-0.4,1.3c-0.4-0.2-1-0.3-1.9-0.3
		c-1.7,0-3.1,0.9-3.1,2.9c0,1.9,1.2,2.9,2.8,2.9c0.5,0,0.8-0.1,1-0.1v-2h-1.4v-1.3h3.2V61.5z M108.9,57.2c-0.1,0-0.3,0-0.5,0
		c-0.9,0-1.5,0.5-1.5,1.5v3.1H105v-4.1c0-0.7,0-1.3-0.1-1.9h1.6l0.1,1h0c0.3-0.8,1.1-1.2,1.8-1.2c0.2,0,0.3,0,0.4,0V57.2z M116,58.7
		c0,2.3-1.7,3.2-3.3,3.2c-1.9,0-3.3-1.1-3.3-3.1c0-2,1.4-3.2,3.4-3.2C114.7,55.6,116,56.9,116,58.7z M112.7,56.8c-1,0-1.4,1-1.4,2
		c0,1.1,0.5,2,1.4,2c0.9,0,1.4-0.9,1.4-2C114.1,57.8,113.7,56.8,112.7,56.8z M123.2,59.9c0,0.7,0,1.3,0.1,1.8h-1.6l-0.1-0.8h0
		c-0.3,0.4-0.9,0.9-2,0.9c-1.3,0-2.3-0.7-2.3-2.5v-3.6h1.9v3.3c0,0.9,0.3,1.5,1.1,1.5c0.6,0,1.2-0.4,1.2-1.1v-3.7h1.9V59.9z
		 M126.5,56.6c0.5-0.6,1.2-1,2.1-1c1.5,0,2.7,1.2,2.7,3.1c0,2.2-1.5,3.2-2.9,3.2c-0.8,0-1.4-0.3-1.7-0.7h0v3h-1.9v-6.5
		c0-0.8,0-1.4-0.1-2h1.6L126.5,56.6L126.5,56.6z M126.6,59.3c0,0.9,0.6,1.3,1.3,1.3c1,0,1.4-0.8,1.4-1.9c0-1.1-0.5-1.8-1.4-1.8
		c-0.7,0-1.3,0.6-1.3,1.3V59.3z M147.2,61.8h-1.8l-0.2-3.2c-0.1-1.1-0.1-2.2-0.1-3.3h0c-0.3,1-0.6,2.1-1,3l-1.2,3.4h-1.4l-1.1-3.3
		c-0.3-0.9-0.6-2.1-0.9-3.1h0c0,1-0.1,2.3-0.2,3.3l-0.2,3.2h-1.7l0.7-8.3h2.3l1.1,3.1c0.3,1,0.6,2,0.8,2.9h0
		c0.2-0.9,0.5-1.9,0.9-2.9l1.1-3.1h2.3L147.2,61.8z M154,61.5c-0.6,0.2-1.4,0.3-2.3,0.3c-2.2,0-3.4-1.2-3.4-3c0-1.7,1.2-3.2,3.2-3.2
		c1.7,0,2.8,1,2.8,3c0,0.2,0,0.5-0.1,0.6h-4.2c0.1,1,0.9,1.4,1.9,1.4c0.7,0,1.2-0.1,1.7-0.2L154,61.5z M152.6,58.1
		c0-0.6-0.3-1.4-1.2-1.4c-0.9,0-1.3,0.8-1.3,1.4H152.6z M160.9,61.5c-0.6,0.2-1.4,0.3-2.3,0.3c-2.2,0-3.4-1.2-3.4-3
		c0-1.7,1.2-3.2,3.2-3.2c1.7,0,2.8,1,2.8,3c0,0.2,0,0.5-0.1,0.6h-4.2c0.1,1,0.9,1.4,1.9,1.4c0.7,0,1.2-0.1,1.7-0.2L160.9,61.5z
		 M159.5,58.1c0-0.6-0.3-1.4-1.2-1.4c-0.9,0-1.3,0.8-1.3,1.4H159.5z M162.7,54.7l1.9-0.5v1.6h1.6v1.2h-1.6v2.6c0,0.7,0.3,1,0.8,1
		c0.3,0,0.4,0,0.6-0.1l0,1.2c-0.3,0.1-0.7,0.1-1.3,0.1c-2,0-2.1-1.5-2.1-2.2v-2.8h-0.9v-1.2h0.9V54.7z M168.1,55c-0.6,0-1-0.4-1-0.9
		c0-0.5,0.4-0.9,1-0.9c0.6,0,1,0.4,1,0.9C169.1,54.6,168.7,55,168.1,55z M169,61.8h-1.9v-6h1.9V61.8z M176.7,61.8h-1.9v-3.5
		c0-0.7-0.3-1.3-1.1-1.3c-0.5,0-1.2,0.3-1.2,1.3v3.6h-1.9v-4.2c0-0.7,0-1.3-0.1-1.8h1.6l0.1,0.8h0c0.3-0.4,1-0.9,2-0.9
		c1.3,0,2.3,0.8,2.3,2.5V61.8z M184.3,55.8c0,0.4-0.1,1-0.1,1.8V61c0,1.2-0.1,3.4-3.6,3.4c-0.8,0-1.7-0.1-2.2-0.4l0.4-1.2
		c0.4,0.2,1.1,0.4,1.8,0.4c1.1,0,1.8-0.5,1.8-1.7V61h0c-0.4,0.5-1,0.8-1.8,0.8c-1.7,0-2.7-1.3-2.7-2.9c0-2,1.4-3.2,2.9-3.2
		c0.9,0,1.5,0.4,1.8,0.8h0l0.1-0.7H184.3z M182.3,58.1c0-0.8-0.5-1.2-1.2-1.2c-0.9,0-1.4,0.7-1.4,1.9c0,1,0.5,1.8,1.4,1.8
		c0.4,0,1.2-0.2,1.2-1.3V58.1z M191.9,55c-0.6,0-1-0.4-1-0.9c0-0.5,0.4-0.9,1-0.9c0.6,0,1,0.4,1,0.9C193,54.6,192.5,55,191.9,55z
		 M192.9,61.8H191v-6h1.9V61.8z M200.5,61.8h-1.9v-3.5c0-0.7-0.3-1.3-1.1-1.3c-0.5,0-1.2,0.3-1.2,1.3v3.6h-1.9v-4.2
		c0-0.7,0-1.3-0.1-1.8h1.6l0.1,0.8h0c0.3-0.4,1-0.9,2-0.9c1.3,0,2.3,0.8,2.3,2.5V61.8z M215.1,57.5c0,2.9-1.7,4.4-4.2,4.4
		c-2.6,0-4-1.8-4-4.2c0-2.5,1.6-4.3,4.2-4.3C213.8,53.3,215.1,55.3,215.1,57.5z M208.9,57.6c0,1.6,0.8,3,2.1,3c1.4,0,2.1-1.3,2.1-3
		c0-1.5-0.7-2.9-2.1-2.9C209.6,54.6,208.9,56.1,208.9,57.6z M216.4,53.5h1.9v8.3h-1.9V53.5z M226,54.9h-2.4v6.9h-1.9v-6.9h-2.4v-1.4
		h6.7V54.9z M234.1,61.8h-2l-0.7-2.2h-2.6l-0.7,2.2h-1.9l2.8-8.3h2.4L234.1,61.8z M231.2,58.4l-0.6-1.9c-0.2-0.5-0.3-1.2-0.4-1.7h0
		c-0.1,0.5-0.3,1.2-0.4,1.7l-0.6,1.9H231.2z"/>
</g>
<g>
	<path fill="#FFFFFF" d="M163.1,110c0,3.5-2.9,6.4-6.4,6.4H103c-3.5,0-6.4-2.9-6.4-6.4V81c0-3.5,2.9-6.4,6.4-6.4h53.7
		c3.5,0,6.4,2.9,6.4,6.4V110z"/>
	<path fill="#1D2088" d="M156.7,117.6H103c-4.2,0-7.6-3.4-7.6-7.6V81c0-4.2,3.4-7.6,7.6-7.6h53.7c4.2,0,7.6,3.4,7.6,7.6v29
		C164.3,114.2,160.9,117.6,156.7,117.6z M103,75.7c-2.9,0-5.3,2.4-5.3,5.3v29c0,2.9,2.4,5.3,5.3,5.3h53.7c2.9,0,5.3-2.4,5.3-5.3V81
		c0-2.9-2.4-5.3-5.3-5.3H103z"/>
	<g>
		<path fill="#1D2088" d="M106.4,103.8h-4.9v3.8h4.2v0.6h-4.2v4.2h-0.7v-9.2h5.6V103.8z"/>
		<path fill="#1D2088" d="M114.4,112.3h-5.6v-9.2h5.6v0.6h-4.9v3.6h4.2v0.6h-4.2v3.7h4.9V112.3z"/>
		<path fill="#1D2088" d="M123.2,109.8c0,0.8-0.2,1.4-0.7,1.9c-0.5,0.4-1.1,0.7-2,0.7H117v-9.2h3.4c0.5,0,1,0.1,1.4,0.3
			c0.4,0.2,0.7,0.5,0.9,0.8c0.2,0.4,0.3,0.8,0.3,1.3c0,0.5-0.1,0.9-0.4,1.3c-0.3,0.4-0.6,0.6-1.1,0.8c0.5,0.2,0.9,0.5,1.2,0.8
			C123,108.8,123.2,109.3,123.2,109.8z M122.3,105.5c0-0.4-0.1-0.7-0.3-1c-0.2-0.3-0.4-0.5-0.7-0.6c-0.3-0.1-0.7-0.2-1-0.2h-2.6v3.6
			h2.6c0.6,0,1.1-0.1,1.5-0.4C122.1,106.6,122.3,106.1,122.3,105.5z M122.5,109.8c0-0.4-0.1-0.7-0.3-1c-0.2-0.3-0.4-0.5-0.7-0.6
			c-0.3-0.2-0.7-0.2-1.1-0.2h-2.7v3.8h2.7c0.4,0,0.8-0.1,1.1-0.2c0.3-0.2,0.6-0.4,0.7-0.7C122.4,110.6,122.5,110.2,122.5,109.8z"/>
		<path fill="#1D2088" d="M126.7,112.3h-1v-1h1V112.3z"/>
		<path fill="#1D2088" d="M138.1,112.3h-5.4v-1.2l3.5-4.3c0.3-0.4,0.5-0.8,0.5-1.2c0-0.3-0.1-0.5-0.2-0.7c-0.1-0.2-0.3-0.4-0.5-0.5
			c-0.2-0.1-0.4-0.2-0.7-0.2c-0.4,0-0.7,0.1-1,0.3c-0.3,0.2-0.4,0.6-0.4,1.1h-1.3c0-0.4,0.1-0.7,0.2-1.1c0.1-0.3,0.3-0.6,0.6-0.8
			c0.2-0.2,0.5-0.4,0.8-0.5c0.3-0.1,0.7-0.2,1.1-0.2c0.5,0,1,0.1,1.4,0.3c0.4,0.2,0.7,0.5,0.9,0.9c0.2,0.4,0.3,0.8,0.3,1.4
			c0,0.4-0.1,0.7-0.2,1c-0.1,0.3-0.4,0.6-0.7,1l-2.9,3.5h3.8V112.3z"/>
		<path fill="#1D2088" d="M145.5,109.8c0,0.5-0.1,1-0.4,1.4c-0.2,0.4-0.6,0.7-1,0.9c-0.4,0.2-0.9,0.3-1.3,0.3
			c-0.5,0-0.9-0.1-1.3-0.3c-0.4-0.2-0.7-0.5-1-0.9c-0.2-0.4-0.4-0.9-0.4-1.4v-4.1c0-0.4,0.1-0.8,0.2-1.1c0.1-0.3,0.3-0.6,0.6-0.8
			c0.2-0.2,0.5-0.4,0.9-0.5c0.3-0.1,0.7-0.2,1-0.2c0.4,0,0.7,0.1,1,0.2c0.3,0.1,0.6,0.3,0.9,0.5c0.2,0.2,0.4,0.5,0.6,0.8
			c0.1,0.3,0.2,0.7,0.2,1.1V109.8z M144.2,109.7v-4c0-0.3-0.1-0.5-0.2-0.8c-0.1-0.2-0.3-0.4-0.5-0.5c-0.2-0.1-0.4-0.2-0.7-0.2
			c-0.3,0-0.5,0.1-0.7,0.2c-0.2,0.1-0.4,0.3-0.5,0.5c-0.1,0.2-0.2,0.5-0.2,0.8v4c0,0.5,0.1,0.8,0.4,1.1c0.2,0.3,0.6,0.4,1,0.4
			c0.4,0,0.7-0.1,1-0.4C144.1,110.6,144.2,110.2,144.2,109.7z"/>
		<path fill="#1D2088" d="M151.1,112.3h-1.3v-7.8l-1.8,1.6v-1.5l1.8-1.6h1.3V112.3z"/>
		<path fill="#1D2088" d="M159.7,111h-1v1.4h-1.3V111h-3.7v-1.2l3.2-6.6h1.4l-3.2,6.6h2.3v-2.1h1.3v2.1h1V111z"/>
	</g>
	<g>
		<path fill="#1D2088" d="M112.3,90.1h-1.9l-0.4,2.6h1.6v2h-1.9l-0.7,4.3h-2.2l0.7-4.3h-2.9l-0.7,4.3h-2.2l0.7-4.3h-1.6v-2h2
			l0.4-2.6h-1.7v-2h2l0.6-4.1h2.2l-0.6,4.1h2.8l0.6-4.1h2.2l-0.6,4.1h1.6V90.1z M108.2,90.1h-2.8l-0.4,2.6h2.8L108.2,90.1z"/>
		<path fill="#1D2088" d="M121,99.1c-1.8,0-3.3-0.5-4.5-1.6s-1.9-2.6-1.9-4.5v-7.8c0-1.9,0.6-3.5,1.9-4.5c1.2-1.1,2.7-1.6,4.5-1.6
			c1.8,0,3.3,0.5,4.5,1.6c1.2,1.1,1.9,2.6,1.9,4.5V93c0,1.9-0.6,3.5-1.9,4.5S122.8,99.1,121,99.1z M122.9,85.2
			c0-0.7-0.2-1.2-0.5-1.5c-0.3-0.4-0.8-0.5-1.3-0.5c-0.5,0-0.9,0.2-1.3,0.5c-0.3,0.3-0.5,0.9-0.5,1.5V93c0,0.7,0.2,1.2,0.5,1.5
			c0.3,0.3,0.8,0.5,1.3,0.5c0.5,0,1-0.2,1.3-0.5c0.3-0.3,0.5-0.8,0.5-1.5V85.2z"/>
		<path fill="#1D2088" d="M136.5,99.1c-1.8,0-3.3-0.5-4.5-1.6c-1.2-1.1-1.9-2.6-1.9-4.5v-7.8c0-1.9,0.6-3.5,1.9-4.5
			c1.2-1.1,2.7-1.6,4.5-1.6c1.8,0,3.3,0.5,4.5,1.6c1.2,1.1,1.9,2.6,1.9,4.5V93c0,1.9-0.6,3.5-1.9,4.5
			C139.7,98.6,138.2,99.1,136.5,99.1z M138.3,85.2c0-0.7-0.2-1.2-0.5-1.5c-0.3-0.4-0.8-0.5-1.3-0.5c-0.5,0-0.9,0.2-1.3,0.5
			c-0.3,0.3-0.5,0.9-0.5,1.5V93c0,0.7,0.2,1.2,0.5,1.5s0.8,0.5,1.3,0.5c0.5,0,1-0.2,1.3-0.5c0.3-0.3,0.5-0.8,0.5-1.5V85.2z"/>
		<path fill="#1D2088" d="M151.9,99.1c-1.9,0-3.5-0.5-4.8-1.5c-1.2-1-1.9-2.5-1.9-4.5c0-1.1,0.2-1.9,0.7-2.5c0.4-0.6,1-1.2,1.6-1.7
			c-0.6-0.5-1.1-1-1.4-1.6c-0.4-0.6-0.6-1.4-0.6-2.3c0-1.8,0.6-3.2,1.9-4.3c1.2-1.1,2.8-1.6,4.6-1.6c1.8,0,3.3,0.5,4.5,1.6
			c1.3,1.1,1.9,2.5,1.9,4.3c0,0.9-0.2,1.7-0.6,2.3c-0.4,0.6-0.9,1.1-1.4,1.6c0.6,0.5,1.2,1.1,1.6,1.7c0.4,0.6,0.6,1.5,0.6,2.5
			c0,2-0.6,3.5-1.9,4.5C155.4,98.6,153.8,99.1,151.9,99.1z M151.9,90.9c-0.6,0-1.1,0.2-1.5,0.6c-0.4,0.4-0.6,0.9-0.6,1.5
			c0,0.6,0.2,1.1,0.6,1.5c0.4,0.4,0.9,0.6,1.5,0.6c0.6,0,1.1-0.2,1.5-0.6c0.4-0.4,0.6-0.9,0.6-1.5c0-0.6-0.2-1.1-0.6-1.5
			C152.9,91.1,152.4,90.9,151.9,90.9z M151.9,83.1c-0.5,0-1,0.2-1.3,0.5c-0.4,0.4-0.5,0.8-0.5,1.4c0,0.5,0.2,1,0.5,1.4
			c0.4,0.4,0.8,0.5,1.3,0.5c0.5,0,1-0.2,1.3-0.5c0.4-0.4,0.5-0.8,0.5-1.4c0-0.5-0.2-1-0.5-1.4C152.9,83.3,152.4,83.1,151.9,83.1z"/>
	</g>
</g>
</svg>
