<?xml version="1.0" encoding="utf-8"?>
<!-- Generator: Adobe Illustrator 17.1.0, SVG Export Plug-In . SVG Version: 6.00 Build 0)  -->
<!DOCTYPE svg PUBLIC "-//W3C//DTD SVG 1.1//EN" "http://www.w3.org/Graphics/SVG/1.1/DTD/svg11.dtd">
<svg version="1.1" id="レイヤー_1" xmlns="http://www.w3.org/2000/svg" xmlns:xlink="http://www.w3.org/1999/xlink" x="0px"
	 y="0px" viewBox="0 0 32 22.7" enable-background="new 0 0 32 22.7" xml:space="preserve">
<g id="camera-video">
	<g id="Expanded">
		<g>
			<g>
				<path fill="#88ABDA" d="M22,22.7H3.3c-1.1,0-2-0.9-2-2v-12c0-1.1,0.9-2,2-2H22c1.1,0,2,0.9,2,2v12C24,21.8,23.1,22.7,22,22.7z
					 M3.3,8C3,8,2.7,8.3,2.7,8.7v12c0,0.4,0.3,0.7,0.7,0.7H22c0.4,0,0.7-0.3,0.7-0.7v-12C22.7,8.3,22.4,8,22,8H3.3z"/>
			</g>
			<g>
				<path fill="#88ABDA" d="M8,18c-1.5,0-2.7-1.2-2.7-2.7s1.2-2.7,2.7-2.7s2.7,1.2,2.7,2.7S9.5,18,8,18z M8,14
					c-0.7,0-1.3,0.6-1.3,1.3s0.6,1.3,1.3,1.3s1.3-0.6,1.3-1.3S8.7,14,8,14z"/>
			</g>
			<g>
				<path fill="#88ABDA" d="M17.3,18c-1.5,0-2.7-1.2-2.7-2.7s1.2-2.7,2.7-2.7s2.7,1.2,2.7,2.7S18.8,18,17.3,18z M17.3,14
					c-0.7,0-1.3,0.6-1.3,1.3s0.6,1.3,1.3,1.3c0.7,0,1.3-0.6,1.3-1.3S18.1,14,17.3,14z"/>
			</g>
			<g>
				<path fill="#88ABDA" d="M17.3,14H8c-0.4,0-0.7-0.3-0.7-0.7s0.3-0.7,0.7-0.7h9.3c0.4,0,0.7,0.3,0.7,0.7S17.7,14,17.3,14z"/>
			</g>
			<g>
				<path fill="#88ABDA" d="M15.3,8c-0.4,0-0.7-0.3-0.7-0.7V4.7C14.7,4.3,14.4,4,14,4H0.7C0.3,4,0,3.7,0,3.3C0,3,0.3,2.7,0.7,2.7H14
					c1.1,0,2,0.9,2,2v2.7C16,7.7,15.7,8,15.3,8z"/>
			</g>
			<g>
				<path fill="#88ABDA" d="M20.7,8C20.3,8,20,7.7,20,7.3v-4c0-1.1,0.9-2,2-2h2.7c0.4,0,0.7,0.3,0.7,0.7S25,2.7,24.7,2.7H22
					c-0.4,0-0.7,0.3-0.7,0.7v4C21.3,7.7,21,8,20.7,8z"/>
			</g>
			<g>
				<path fill="#88ABDA" d="M30,4h-4c-1.1,0-2-0.9-2-2s0.9-2,2-2h4c1.1,0,2,0.9,2,2S31.1,4,30,4z M26,1.3c-0.4,0-0.7,0.3-0.7,0.7
					s0.3,0.7,0.7,0.7h4c0.4,0,0.7-0.3,0.7-0.7S30.4,1.3,30,1.3H26z"/>
			</g>
			<g>
				<path fill="#88ABDA" d="M30.6,21c-0.2,0-0.4,0-0.5-0.1l-7-2.9c-0.3-0.1-0.5-0.5-0.4-0.9c0.1-0.3,0.5-0.5,0.9-0.4l7,2.9l0.1,0
					v-8.5l-0.3-0.7l0.3,0.6l-7,2.9c-0.3,0.1-0.7,0-0.9-0.4c-0.1-0.3,0-0.7,0.4-0.9l7-2.9c0.4-0.2,0.9-0.1,1.3,0.1
					c0.4,0.3,0.6,0.7,0.6,1.2v8.5c0,0.5-0.2,0.9-0.6,1.2C31.2,20.9,30.9,21,30.6,21z"/>
			</g>
		</g>
	</g>
</g>
</svg>
