<?xml version="1.0" encoding="utf-8"?>
<!-- Generator: Adobe Illustrator 17.1.0, SVG Export Plug-In . SVG Version: 6.00 Build 0)  -->
<!DOCTYPE svg PUBLIC "-//W3C//DTD SVG 1.1//EN" "http://www.w3.org/Graphics/SVG/1.1/DTD/svg11.dtd">
<svg version="1.1" id="レイヤー_1" xmlns="http://www.w3.org/2000/svg" xmlns:xlink="http://www.w3.org/1999/xlink" x="0px"
	 y="0px" viewBox="0 0 28.6 32" enable-background="new 0 0 28.6 32" xml:space="preserve">
<g id="calendar">
	<path fill="#FCD475" d="M26.3,3.4h-1.1V2.3c0-1.3-1-2.3-2.3-2.3c-1.3,0-2.3,1-2.3,2.3v1.1H8V2.3C8,1,7,0,5.7,0C4.5,0,3.4,1,3.4,2.3
		v1.1H2.3C1,3.4,0,4.5,0,5.7v5.1v6.8v6.9v6.9C0,31.7,0.3,32,0.6,32h6.9h6.9h6.8H28c0.3,0,0.6-0.3,0.6-0.6v-6.9v-6.9v-6.8V5.7
		C28.6,4.5,27.6,3.4,26.3,3.4z M13.7,11.4v5.7H8v-5.7H13.7z M20.6,11.4v5.7h-5.7v-5.7H20.6z M27.4,11.4v5.7h-5.7v-5.7H27.4z
		 M6.9,17.1H1.2v-5.7h5.7L6.9,17.1z M1.2,18.3h5.7V24H1.2V18.3z M8,18.3h5.7V24H8V18.3z M14.9,18.3h5.7V24h-5.7V18.3z M21.7,18.3
		h5.7V24h-5.7V18.3z M21.7,2.3c0-0.6,0.5-1.1,1.1-1.1S24,1.7,24,2.3V4v1.7c0,0.6-0.5,1.1-1.1,1.1s-1.1-0.5-1.1-1.1V4V2.3z M4.6,2.3
		c0-0.6,0.5-1.1,1.1-1.1c0.6,0,1.1,0.5,1.1,1.1V4v1.7c0,0.6-0.5,1.1-1.1,1.1c-0.6,0-1.1-0.5-1.1-1.1V4L4.6,2.3z M1.2,5.7
		c0-0.6,0.5-1.1,1.1-1.1h1.1v1.1C3.4,7,4.5,8,5.7,8C7,8,8,7,8,5.7V4.6h12.5v1.1c0,1.3,1,2.3,2.3,2.3c1.3,0,2.3-1,2.3-2.3V4.6h1.1
		c0.6,0,1.1,0.5,1.1,1.1v4.6h-6.2h-0.1h-0.1h-6.7h-0.1h-0.1H7.4H1.2V5.7z M1.2,25.1h5.7v5.7H1.2V25.1z M8,25.1h5.7v5.7H8V25.1z
		 M14.9,25.1h5.7v5.7h-5.7V25.1z M27.4,30.8h-5.7v-5.7h5.7V30.8z"/>
</g>
</svg>
