<?xml version="1.0" encoding="utf-8"?>
<!-- Generator: Adobe Illustrator 17.1.0, SVG Export Plug-In . SVG Version: 6.00 Build 0)  -->
<!DOCTYPE svg PUBLIC "-//W3C//DTD SVG 1.1//EN" "http://www.w3.org/Graphics/SVG/1.1/DTD/svg11.dtd">
<svg version="1.1" id="レイヤー_1" xmlns="http://www.w3.org/2000/svg" xmlns:xlink="http://www.w3.org/1999/xlink" x="0px"
	 y="0px" viewBox="0 0 32 32" enable-background="new 0 0 32 32" xml:space="preserve">
<g id="book-open">
	<g>
		<path fill="#A7D181" d="M31.4,0C24.7,0,17.9,1.1,16,3.2C14,1.1,7.3,0,0.6,0C0.3,0,0,0.3,0,0.6v27c0,0.3,0.3,0.6,0.6,0.6
			c9.2,0,14.8,1.9,14.8,3.3c0,0.3,0.3,0.6,0.6,0.6c0.3,0,0.6-0.3,0.6-0.6c0-1.4,5.6-3.3,14.9-3.3c0.3,0,0.6-0.3,0.6-0.6v-27
			C32,0.3,31.7,0,31.4,0z M15.4,29.7C13,28,7.1,27.1,1.1,27V1.2C10,1.2,15.4,3.1,15.4,4.4L15.4,29.7L15.4,29.7z M30.9,27
			c-6,0.1-11.9,1-14.3,2.7V4.4c0-1.3,5.4-3.2,14.3-3.3V27z"/>
	</g>
</g>
</svg>
