<?xml version="1.0" encoding="iso-8859-1"?>
<!-- Generator: Adobe Illustrator 17.1.0, SVG Export Plug-In . SVG Version: 6.00 Build 0)  -->
<!DOCTYPE svg PUBLIC "-//W3C//DTD SVG 1.1//EN" "http://www.w3.org/Graphics/SVG/1.1/DTD/svg11.dtd">
<svg version="1.1" id="&#x30EC;&#x30A4;&#x30E4;&#x30FC;_1"
	 xmlns="http://www.w3.org/2000/svg" xmlns:xlink="http://www.w3.org/1999/xlink" x="0px" y="0px" viewBox="0 0 32 28.752"
	 style="enable-background:new 0 0 32 28.752;" xml:space="preserve">
<g id="list">
	<g>
		<path style="fill:#F08E60;" d="M2.892,11.483C1.298,11.483,0,12.779,0,14.375c0,1.595,1.298,2.894,2.892,2.894
			c1.597,0,2.893-1.299,2.893-2.894C5.784,12.779,4.488,11.483,2.892,11.483z M2.892,16.079c-0.938,0-1.701-0.765-1.701-1.704
			c0-0.94,0.763-1.703,1.701-1.703c0.94,0,1.704,0.763,1.704,1.703C4.596,15.314,3.832,16.079,2.892,16.079z"/>
		<path style="fill:#F08E60;" d="M2.892,0C1.298,0,0,1.297,0,2.891c0,1.595,1.298,2.894,2.892,2.894
			c1.597,0,2.893-1.299,2.893-2.895C5.784,1.297,4.488,0,2.892,0z M2.892,4.598c-0.938,0-1.701-0.766-1.701-1.707
			c0-0.939,0.763-1.699,1.701-1.699c0.94,0,1.704,0.76,1.704,1.699C4.596,3.832,3.832,4.598,2.892,4.598z"/>
		<path style="fill:#F08E60;" d="M2.892,22.965C1.298,22.965,0,24.262,0,25.86c0,1.594,1.298,2.892,2.892,2.892
			c1.597,0,2.893-1.298,2.893-2.892C5.784,24.262,4.488,22.965,2.892,22.965z M2.892,27.563c-0.938,0-1.701-0.764-1.701-1.702
			c0-0.943,0.763-1.706,1.701-1.706c0.94,0,1.704,0.763,1.704,1.706C4.596,26.799,3.832,27.563,2.892,27.563z"/>
		<path style="fill:#F08E60;" d="M31.404,25.265H9.78c-0.329,0-0.594,0.269-0.594,0.596c0,0.326,0.265,0.594,0.594,0.594h21.624
			c0.33,0,0.596-0.268,0.596-0.594C32,25.533,31.734,25.265,31.404,25.265z"/>
		<path style="fill:#F08E60;" d="M31.404,13.777H9.78c-0.329,0-0.594,0.27-0.594,0.598c0,0.326,0.265,0.592,0.594,0.592h21.624
			c0.33,0,0.596-0.266,0.596-0.592C32,14.047,31.734,13.777,31.404,13.777z"/>
		<path style="fill:#F08E60;" d="M31.404,2.296H9.78c-0.329,0-0.594,0.267-0.594,0.595S9.451,3.485,9.78,3.485h21.624
			C31.734,3.485,32,3.218,32,2.89S31.734,2.296,31.404,2.296z"/>
	</g>
</g>
</svg>
