<?xml version="1.0" encoding="iso-8859-1"?>
<!-- Generator: Adobe Illustrator 17.1.0, SVG Export Plug-In . SVG Version: 6.00 Build 0)  -->
<!DOCTYPE svg PUBLIC "-//W3C//DTD SVG 1.1//EN" "http://www.w3.org/Graphics/SVG/1.1/DTD/svg11.dtd">
<svg version="1.1" id="&#x30EC;&#x30A4;&#x30E4;&#x30FC;_1"
	 xmlns="http://www.w3.org/2000/svg" xmlns:xlink="http://www.w3.org/1999/xlink" x="0px" y="0px" viewBox="0 0 28.557 32.002"
	 style="enable-background:new 0 0 28.557 32.002;" xml:space="preserve">
<g id="play">
	<g>
		<path style="fill:#D480B1;" d="M26.828,13.351L4.568,0.499C2.3-0.808,0,0.588,0,3.139v25.703c0,1.865,1.131,3.16,2.752,3.16
			c0.598,0,1.207-0.17,1.811-0.521l22.271-12.855c1.094-0.638,1.723-1.602,1.723-2.642S27.927,13.982,26.828,13.351z M25.508,16.339
			L3.249,29.193c-0.283,0.163-0.452,0.176-0.497,0.176l-0.006,0.016c-0.031-0.034-0.113-0.191-0.113-0.543V3.139
			c0-0.353,0.082-0.51,0.126-0.528c0.038,0,0.207,0.013,0.496,0.176l22.253,12.855c0.308,0.166,0.396,0.323,0.415,0.332
			C25.904,16.015,25.816,16.169,25.508,16.339z"/>
	</g>
</g>
</svg>
