<?xml version="1.0" encoding="utf-8"?>
<!-- Generator: Adobe Illustrator 17.1.0, SVG Export Plug-In . SVG Version: 6.00 Build 0)  -->
<!DOCTYPE svg PUBLIC "-//W3C//DTD SVG 1.1//EN" "http://www.w3.org/Graphics/SVG/1.1/DTD/svg11.dtd">
<svg version="1.1" id="レイヤー_1" xmlns="http://www.w3.org/2000/svg" xmlns:xlink="http://www.w3.org/1999/xlink" x="0px"
	 y="0px" viewBox="0 0 300 150" enable-background="new 0 0 300 150" xml:space="preserve">
<g>
	<g>
		<g>
			<path fill-rule="evenodd" clip-rule="evenodd" fill="#BEDFC2" d="M33.4,81.1c-5.4,0-9.8-4.4-9.8-9.8l0,0c0-1.8,0.5-3.6,1.4-5l0,0
				H4.2c-1.5,0-2.9-0.8-3.6-2l0,0c-0.4-0.7-0.6-1.5-0.6-2.2l0,0c0-0.7,0.2-1.3,0.5-1.9l0,0L26.8,8c0.7-1.4,2.2-2.3,3.8-2.3l0,0
				l17.6,0c1.6,0,3.1,0.9,3.8,2.3l0,0l5,9.9v-4.7c0,0,0-0.1-0.1-0.4l0,0c-0.1-0.3-0.2-0.9-0.4-1.8l0,0c-0.1-0.3-0.1-0.7-0.1-1l0,0
				c0-0.9,0.3-1.9,0.9-2.6l0,0c0.8-1,2-1.6,3.4-1.6l0,0H120c1.3,0,2.6,0.6,3.4,1.7l0,0c0.2,0.3,0.3,0.5,0.5,0.8l0,0
				c5.4-2.6,11.8-3.9,19.1-3.9l0,0c8.5,0,15.5,1.3,20.9,4l0,0c0.6-1.6,2.2-2.6,3.9-2.6l0,0h69.8c1.9,0,3.6,1.3,4.1,3l0,0
				c5.8-2.9,12.8-4.4,20.9-4.4l0,0c11.2,0,20.3,2.8,27,8.3l0,0l-0.7,0.8l0.7-0.8c6.8,5.7,10.3,13.6,10.2,23.3l0,0
				c0,9.7-3.5,17.7-10.3,23.4l0,0c-4,3.4-9,5.7-14.7,7l0,0c0.8,1.4,1.3,3.1,1.3,4.9l0,0c0,5.4-4.4,9.8-9.8,9.8l0,0H33.4L33.4,81.1z"
				/>
		</g>
	</g>
	<path fill-rule="evenodd" clip-rule="evenodd" fill="#E64290" d="M33.4,81.1c-5.4,0-9.8-4.4-9.8-9.8l0,0c0-1.8,0.5-3.6,1.4-5l0,0
		H4.2c-1.5,0-2.9-0.8-3.6-2l0,0c-0.4-0.7-0.6-1.5-0.6-2.2l0,0c0-0.7,0.2-1.3,0.5-1.9l0,0L26.8,8c0.7-1.4,2.2-2.3,3.8-2.3l0,0l17.6,0
		c1.6,0,3.1,0.9,3.8,2.3l0,0l5,9.9v-4.7c0,0,0-0.1-0.1-0.4l0,0c-0.1-0.3-0.2-0.9-0.4-1.8l0,0c-0.1-0.3-0.1-0.7-0.1-1l0,0
		c0-0.9,0.3-1.9,0.9-2.6l0,0c0.8-1,2-1.6,3.4-1.6l0,0H120c1.3,0,2.6,0.6,3.4,1.7l0,0c0.2,0.3,0.3,0.5,0.5,0.8l0,0
		c5.4-2.6,11.8-3.9,19.1-3.9l0,0c8.5,0,15.5,1.3,20.9,4l0,0c0.6-1.6,2.2-2.6,3.9-2.6l0,0h69.8c1.9,0,3.6,1.3,4.1,3l0,0
		c5.8-2.9,12.8-4.4,20.9-4.4l0,0c11.2,0,20.3,2.8,27,8.3l0,0l-0.7,0.8l0.7-0.8c6.8,5.7,10.3,13.6,10.2,23.3l0,0
		c0,9.7-3.5,17.7-10.3,23.4l0,0c-4,3.4-9,5.7-14.7,7l0,0c0.8,1.4,1.3,3.1,1.3,4.9l0,0c0,5.4-4.4,9.8-9.8,9.8l0,0H33.4L33.4,81.1z
		 M61.4,41.9v-6.2L48.3,9.9H30.7L4.2,62h22.2c-0.4-1.3-0.2-2.7,0.5-4.2l2.8-5.8h19.7l2.7,5.8c0.7,1.5,0.8,2.9,0.5,4.2h22.2l-0.6-1.1
		C65.6,57.7,61.4,51.4,61.4,41.9z M34.6,41.5l4.9-10.2l4.9,10.2H34.6z M81.6,10c-0.4,1.5-0.6,2.6-0.6,3.2v31.6
		c0,1.8,0.9,3.4,2.8,4.7c1.8,1.2,4,1.8,6.6,1.8c2.5,0,4.7-0.6,6.6-1.9c1.9-1.2,2.8-2.8,2.8-4.6V13.2c0-0.6-0.2-1.7-0.6-3.2H81.6z
		 M167.9,58.5c0,0.9-0.2,2-0.7,3.4h-10.9c0.3-0.7,0.5-1.3,0.5-1.8c-4.2,2.1-8.8,3.2-13.8,3.2c-10,0-18-2.7-23.9-8.1
		c-0.9-0.8-1.6-1.6-2.3-2.5c1.7-3,2.5-6.5,2.5-10.7V16.3c5.8-5.2,13.7-7.8,23.7-7.8c8.3,0,14.9,1.3,19.7,4c1.9,1.1,3.6,2.4,5.1,4v9
		h-17.2c-0.2-1.6-1.1-2.9-2.6-3.8c-1.5-0.9-3.3-1.4-5.5-1.4c-3.4,0-6.1,1.5-8.1,4.4c-2,3-3.1,6.7-3.1,11.2c0,4.2,1.3,7.8,4,10.6
		c2.5,2.7,5.4,4,8.7,4c5.4,0,9.1-1.5,10.9-4.4h-4.3c-0.6,0-1.5,0.2-3,0.5V34.5h20.3V58.5z M194.4,61.9L187.1,46v12.6
		c0,0.8,0.2,1.9,0.6,3.4H194.4z M217.6,61.9c0.5-1.4,0.7-2.5,0.7-3.4V45.8l-7.3,16.1L217.6,61.9z M189.9,10l12.8,29.7L215.8,10
		H189.9z M286.9,16c-5.9-4.9-13.9-7.3-24.2-7.3c-10.3,0-18.3,2.4-24.1,7.3c-0.3,0.3-0.6,0.5-0.9,0.8v38.6c0.3,0.2,0.5,0.5,0.8,0.7
		c5.9,4.9,13.9,7.3,24.2,7.3c10.3,0,18.3-2.4,24.1-7.3c5.9-4.9,8.8-11.6,8.8-20.1C295.6,27.5,292.7,20.8,286.9,16z M262.7,51.2
		c-7.9,0-11.8-5.1-11.8-15.2c0-10.1,3.9-15.2,11.8-15.2c7.9,0,11.8,5.1,11.8,15.2C274.5,46.1,270.6,51.2,262.7,51.2z M38.4,75.7
		h-2.3l-0.8-2.5h-3l-0.8,2.5h-2.2l3.2-9.6h2.7L38.4,75.7z M35,71.8l-0.7-2.2c-0.2-0.6-0.4-1.4-0.5-2h0c-0.1,0.6-0.3,1.4-0.5,1.9
		l-0.7,2.2H35z M41.6,69.7c0.5-0.7,1.4-1.1,2.4-1.1c1.8,0,3.1,1.4,3.1,3.6c0,2.6-1.7,3.7-3.4,3.7c-0.9,0-1.6-0.4-1.9-0.8h0v3.5h-2.2
		V71c0-0.9,0-1.6-0.1-2.3h1.9L41.6,69.7L41.6,69.7z M41.8,72.9c0,1,0.7,1.5,1.5,1.5c1.1,0,1.7-0.9,1.7-2.2c0-1.2-0.6-2.1-1.6-2.1
		c-0.8,0-1.5,0.7-1.5,1.5V72.9z M50.4,69.7c0.5-0.7,1.4-1.1,2.4-1.1c1.8,0,3.1,1.4,3.1,3.6c0,2.6-1.7,3.7-3.4,3.7
		c-0.9,0-1.6-0.4-1.9-0.8h0v3.5h-2.2V71c0-0.9,0-1.6-0.1-2.3h1.9L50.4,69.7L50.4,69.7z M50.6,72.9c0,1,0.7,1.5,1.5,1.5
		c1.1,0,1.7-0.9,1.7-2.2c0-1.2-0.6-2.1-1.6-2.1c-0.8,0-1.5,0.7-1.5,1.5V72.9z M59.5,75.7h-2.2v-10h2.2V75.7z M67.5,75.4
		c-0.7,0.2-1.6,0.4-2.6,0.4c-2.5,0-4-1.3-4-3.5c0-2,1.4-3.7,3.7-3.7c2,0,3.3,1.2,3.3,3.4c0,0.3,0,0.5-0.1,0.7H63
		c0.1,1.2,1.1,1.7,2.2,1.7c0.8,0,1.4-0.1,2-0.3L67.5,75.4z M65.9,71.5c0-0.7-0.3-1.6-1.4-1.6c-1,0-1.5,0.9-1.5,1.6H65.9z M83.5,71.7
		c0,2.8-1.6,4.1-4.1,4.1c-2.5,0-4-1.3-4-4.1v-5.6h2.2v5.8c0,1.7,0.7,2.4,1.9,2.4c1.2,0,1.9-0.7,1.9-2.4v-5.8h2.2V71.7z M89.7,70.3
		c-0.4-0.2-0.9-0.4-1.5-0.4c-0.7,0-1,0.3-1,0.7c0,0.4,0.3,0.6,1.2,0.9c1.4,0.5,2,1.2,2,2.1c0,1.3-1.2,2.2-3.2,2.2
		c-0.9,0-1.8-0.2-2.3-0.5l0.4-1.3c0.4,0.2,1.2,0.5,1.9,0.5c0.8,0,1.1-0.3,1.1-0.7c0-0.4-0.3-0.6-1.2-1c-1.5-0.5-2.1-1.3-2.1-2
		c0-1.3,1.2-2.2,3-2.2c0.8,0,1.6,0.2,2,0.4L89.7,70.3z M98,75.4c-0.7,0.2-1.6,0.4-2.6,0.4c-2.5,0-4-1.3-4-3.5c0-2,1.3-3.7,3.7-3.7
		c2,0,3.3,1.2,3.3,3.4c0,0.3,0,0.5-0.1,0.7h-4.9c0.1,1.2,1.1,1.7,2.2,1.7c0.8,0,1.4-0.1,2-0.3L98,75.4z M96.4,71.5
		c0-0.7-0.3-1.6-1.4-1.6c-1,0-1.5,0.9-1.5,1.6H96.4z M104.2,70.4c-0.2,0-0.3,0-0.6,0c-1,0-1.7,0.6-1.7,1.7v3.6h-2.2v-4.8
		c0-0.9,0-1.5-0.1-2.2h1.9l0.1,1.2h0.1c0.4-0.9,1.3-1.4,2-1.4c0.2,0,0.3,0,0.5,0V70.4z M119.6,75.3c-0.7,0.2-1.9,0.5-3.2,0.5
		c-1.7,0-3-0.4-4-1.2c-1-0.8-1.5-2.1-1.5-3.6c0-3.2,2.5-5,5.8-5c1.1,0,2.1,0.2,2.6,0.4l-0.5,1.5c-0.5-0.2-1.2-0.4-2.2-0.4
		c-2,0-3.5,1-3.5,3.4c0,2.2,1.4,3.3,3.3,3.3c0.5,0,0.9-0.1,1.1-0.1v-2.3h-1.6v-1.5h3.7V75.3z M125.7,70.4c-0.2,0-0.3,0-0.6,0
		c-1,0-1.7,0.6-1.7,1.7v3.6h-2.2v-4.8c0-0.9,0-1.5-0.1-2.2h1.9l0.1,1.2h0.1c0.4-0.9,1.3-1.4,2-1.4c0.2,0,0.3,0,0.5,0V70.4z
		 M133.9,72.2c0,2.6-2,3.7-3.8,3.7c-2.2,0-3.8-1.3-3.8-3.6c0-2.3,1.7-3.7,3.9-3.7C132.5,68.6,133.9,70.1,133.9,72.2z M130.1,70
		c-1.2,0-1.6,1.2-1.6,2.3c0,1.2,0.6,2.3,1.6,2.3c1,0,1.6-1,1.6-2.3C131.7,71.1,131.3,70,130.1,70z M142.2,73.6c0,0.8,0,1.5,0.1,2.1
		h-1.9l-0.1-0.9h0c-0.3,0.5-1.1,1.1-2.3,1.1c-1.6,0-2.6-0.9-2.6-2.9v-4.1h2.2v3.9c0,1,0.4,1.7,1.2,1.7c0.7,0,1.3-0.5,1.3-1.3v-4.3
		h2.2V73.6z M146,69.7c0.5-0.7,1.4-1.1,2.4-1.1c1.8,0,3.1,1.4,3.1,3.6c0,2.6-1.7,3.7-3.4,3.7c-0.9,0-1.6-0.4-1.9-0.8h0v3.5h-2.2V71
		c0-0.9,0-1.6-0.1-2.3h1.9L146,69.7L146,69.7z M146.2,72.9c0,1,0.7,1.5,1.5,1.5c1.1,0,1.7-0.9,1.7-2.2c0-1.2-0.6-2.1-1.6-2.1
		c-0.8,0-1.5,0.7-1.5,1.5V72.9z M170,75.7H168l-0.2-3.7c-0.1-1.3-0.1-2.6-0.1-3.8h0c-0.3,1.1-0.7,2.4-1.1,3.5l-1.4,3.9h-1.6
		l-1.2-3.8c-0.4-1.1-0.7-2.4-1-3.6h0c0,1.2-0.1,2.6-0.2,3.8l-0.2,3.7h-2l0.8-9.6h2.7l1.2,3.6c0.4,1.2,0.7,2.3,0.9,3.4h0
		c0.3-1.1,0.6-2.2,1-3.4l1.3-3.6h2.7L170,75.7z M177.8,75.4c-0.7,0.3-1.6,0.4-2.6,0.4c-2.5,0-4-1.3-4-3.5c0-2,1.3-3.7,3.7-3.7
		c2,0,3.3,1.2,3.3,3.4c0,0.3,0,0.5-0.1,0.7h-4.9c0.1,1.2,1.1,1.7,2.2,1.7c0.8,0,1.4-0.1,2-0.3L177.8,75.4z M176.2,71.5
		c0-0.7-0.3-1.6-1.4-1.6c-1,0-1.5,0.9-1.5,1.6H176.2z M185.8,75.4c-0.7,0.3-1.6,0.4-2.6,0.4c-2.5,0-4-1.3-4-3.5c0-2,1.4-3.7,3.7-3.7
		c2,0,3.3,1.2,3.3,3.4c0,0.3,0,0.5-0.1,0.7h-4.9c0.1,1.2,1.1,1.7,2.2,1.7c0.8,0,1.4-0.1,2-0.3L185.8,75.4z M184.2,71.5
		c0-0.7-0.3-1.6-1.4-1.6c-1,0-1.5,0.9-1.5,1.6H184.2z M187.9,67.5l2.1-0.5v1.8h1.8v1.4h-1.8v3c0,0.8,0.3,1.2,1,1.2
		c0.3,0,0.5,0,0.7-0.1l0,1.4c-0.3,0.1-0.8,0.2-1.5,0.2c-2.3,0-2.4-1.7-2.4-2.5v-3.2h-1.1v-1.4h1.1V67.5z M194.1,67.9
		c-0.7,0-1.2-0.4-1.2-1c0-0.6,0.5-1,1.2-1c0.7,0,1.2,0.4,1.2,1C195.3,67.5,194.8,67.9,194.1,67.9z M195.2,75.7h-2.2v-7h2.2V75.7z
		 M204,75.7h-2.2v-4.1c0-0.8-0.3-1.5-1.2-1.5c-0.6,0-1.4,0.4-1.4,1.4v4.1H197v-4.9c0-0.8,0-1.5-0.1-2.1h1.9l0.1,0.9h0
		c0.4-0.5,1.2-1.1,2.4-1.1c1.5,0,2.7,0.9,2.7,2.8V75.7z M212.8,68.8c0,0.5-0.1,1.1-0.1,2.1v3.9c0,1.4-0.1,3.9-4.1,3.9
		c-1,0-1.9-0.2-2.6-0.5l0.4-1.4c0.5,0.2,1.2,0.5,2.1,0.5c1.2,0,2-0.6,2-1.9v-0.5h0c-0.4,0.5-1.1,0.9-2,0.9c-1.9,0-3.2-1.5-3.2-3.4
		c0-2.3,1.6-3.7,3.4-3.7c1,0,1.7,0.4,2.1,1h0l0.1-0.8H212.8z M210.6,71.5c0-0.9-0.6-1.4-1.4-1.4c-1,0-1.6,0.8-1.6,2.2
		c0,1.2,0.6,2,1.6,2c0.5,0,1.4-0.3,1.4-1.4V71.5z M221.7,67.9c-0.7,0-1.2-0.4-1.2-1c0-0.6,0.5-1,1.2-1c0.7,0,1.2,0.4,1.2,1
		C222.9,67.5,222.4,67.9,221.7,67.9z M222.8,75.7h-2.2v-7h2.2V75.7z M231.6,75.7h-2.2v-4.1c0-0.8-0.3-1.5-1.2-1.5
		c-0.6,0-1.4,0.4-1.4,1.4v4.1h-2.2v-4.9c0-0.8,0-1.5-0.1-2.1h1.9l0.1,0.9h0c0.4-0.5,1.2-1.1,2.4-1.1c1.5,0,2.7,0.9,2.7,2.8V75.7z
		 M248.5,70.8c0,3.3-2,5.1-4.8,5.1c-3,0-4.7-2.1-4.7-4.9c0-2.9,1.9-5,4.8-5C246.9,66,248.5,68.2,248.5,70.8z M241.3,70.9
		c0,1.9,0.9,3.4,2.5,3.4c1.6,0,2.5-1.5,2.5-3.5c0-1.8-0.8-3.4-2.4-3.4C242,67.5,241.3,69.2,241.3,70.9z M250,66.1h2.2v9.6H250V66.1z
		 M261,67.7h-2.8v8h-2.2v-8h-2.8v-1.6h7.7V67.7z M270.4,75.7h-2.3l-0.8-2.5h-3l-0.8,2.5h-2.2l3.2-9.6h2.7L270.4,75.7z M267,71.8
		l-0.7-2.2c-0.2-0.6-0.4-1.4-0.5-2h0c-0.1,0.6-0.3,1.4-0.5,1.9l-0.7,2.2H267z"/>
</g>
<g>
	<path fill="#FFFFFF" d="M188.4,136.5c0,4.1-3.3,7.4-7.4,7.4h-62.1c-4.1,0-7.4-3.3-7.4-7.4V103c0-4.1,3.3-7.4,7.4-7.4h62.1
		c4.1,0,7.4,3.3,7.4,7.4V136.5z"/>
	<path fill="#1D2088" d="M180.9,145.3h-62.1c-4.8,0-8.8-3.9-8.8-8.8V103c0-4.8,3.9-8.8,8.8-8.8h62.1c4.8,0,8.8,3.9,8.8,8.8v33.6
		C189.7,141.4,185.8,145.3,180.9,145.3z M118.9,96.9c-3.3,0-6.1,2.7-6.1,6.1v33.6c0,3.3,2.7,6.1,6.1,6.1h62.1c3.3,0,6.1-2.7,6.1-6.1
		V103c0-3.3-2.7-6.1-6.1-6.1H118.9z"/>
	<g>
		<path fill="#1D2088" d="M122.8,129.3h-5.6v4.4h4.8v0.7h-4.8v4.8h-0.8v-10.6h6.5V129.3z"/>
		<path fill="#1D2088" d="M132.1,139.3h-6.5v-10.6h6.5v0.7h-5.6v4.2h4.8v0.7h-4.8v4.3h5.6V139.3z"/>
		<path fill="#1D2088" d="M142.2,136.4c0,0.9-0.3,1.6-0.8,2.1c-0.6,0.5-1.3,0.8-2.3,0.8h-4v-10.6h3.9c0.6,0,1.1,0.1,1.6,0.3
			c0.5,0.2,0.8,0.5,1.1,1c0.3,0.4,0.4,0.9,0.4,1.5c0,0.6-0.1,1.1-0.4,1.5c-0.3,0.4-0.7,0.7-1.2,0.9c0.6,0.2,1,0.5,1.3,1
			C142.1,135.2,142.2,135.7,142.2,136.4z M141.2,131.4c0-0.5-0.1-0.9-0.3-1.2c-0.2-0.3-0.5-0.5-0.8-0.7c-0.4-0.1-0.8-0.2-1.2-0.2h-3
			v4.1h3c0.7,0,1.3-0.2,1.7-0.5C141,132.6,141.2,132.1,141.2,131.4z M141.4,136.4c0-0.5-0.1-0.8-0.3-1.2c-0.2-0.3-0.5-0.6-0.8-0.8
			c-0.4-0.2-0.8-0.3-1.3-0.3h-3.1v4.4h3.1c0.5,0,0.9-0.1,1.3-0.3c0.4-0.2,0.6-0.4,0.8-0.8C141.3,137.2,141.4,136.8,141.4,136.4z"/>
		<path fill="#1D2088" d="M146.3,139.3h-1.1v-1.1h1.1V139.3z"/>
		<path fill="#1D2088" d="M159.5,139.3h-6.2v-1.4l4.1-5c0.4-0.5,0.6-0.9,0.6-1.4c0-0.3-0.1-0.6-0.2-0.8c-0.1-0.3-0.3-0.4-0.5-0.6
			c-0.2-0.1-0.5-0.2-0.8-0.2c-0.4,0-0.8,0.1-1.1,0.4c-0.3,0.3-0.4,0.7-0.4,1.2h-1.5c0-0.4,0.1-0.9,0.2-1.2c0.2-0.4,0.4-0.7,0.6-1
			c0.3-0.3,0.6-0.5,1-0.6s0.8-0.2,1.2-0.2c0.6,0,1.1,0.1,1.6,0.4c0.5,0.2,0.8,0.6,1.1,1c0.3,0.5,0.4,1,0.4,1.6
			c0,0.4-0.1,0.8-0.2,1.1c-0.2,0.3-0.4,0.7-0.8,1.2l-3.3,4.1h4.3V139.3z"/>
		<path fill="#1D2088" d="M168,136.3c0,0.6-0.1,1.2-0.4,1.6c-0.3,0.5-0.6,0.8-1.1,1.1c-0.5,0.2-1,0.4-1.6,0.4
			c-0.6,0-1.1-0.1-1.6-0.4c-0.5-0.2-0.8-0.6-1.1-1.1c-0.3-0.5-0.4-1-0.4-1.6v-4.7c0-0.5,0.1-0.9,0.2-1.3c0.2-0.4,0.4-0.7,0.7-1
			c0.3-0.3,0.6-0.5,1-0.6c0.4-0.1,0.8-0.2,1.2-0.2c0.4,0,0.8,0.1,1.2,0.2c0.4,0.1,0.7,0.3,1,0.6c0.3,0.3,0.5,0.6,0.7,1
			c0.2,0.4,0.2,0.8,0.2,1.3V136.3z M166.5,136.2v-4.6c0-0.3-0.1-0.6-0.2-0.9c-0.1-0.3-0.3-0.5-0.5-0.6c-0.2-0.1-0.5-0.2-0.8-0.2
			c-0.3,0-0.6,0.1-0.8,0.2c-0.2,0.1-0.4,0.3-0.5,0.6c-0.1,0.3-0.2,0.6-0.2,0.9v4.6c0,0.5,0.1,0.9,0.4,1.3c0.3,0.3,0.7,0.5,1.1,0.5
			c0.5,0,0.9-0.2,1.1-0.5C166.4,137.2,166.5,136.8,166.5,136.2z"/>
		<path fill="#1D2088" d="M174.4,139.3h-1.5v-9l-2.1,1.8v-1.7l2.1-1.8h1.5V139.3z"/>
		<path fill="#1D2088" d="M184.5,137.7h-1.1v1.6h-1.5v-1.6h-4.3v-1.4l3.7-7.6h1.6l-3.7,7.6h2.6v-2.5h1.5v2.5h1.1V137.7z"/>
	</g>
	<g>
		<path fill="#1D2088" d="M129.7,113.5h-2.2l-0.5,3h1.9v2.3h-2.3l-0.8,5h-2.5l0.8-5h-3.3l-0.8,5h-2.6l0.8-5h-1.9v-2.3h2.3l0.5-3
			h-1.9v-2.3h2.3l0.8-4.7h2.6l-0.7,4.7h3.3l0.8-4.7h2.5l-0.8,4.7h1.9V113.5z M124.9,113.5h-3.3l-0.5,3h3.3L124.9,113.5z"/>
		<path fill="#1D2088" d="M139.8,124c-2,0-3.8-0.6-5.2-1.9s-2.1-3-2.1-5.2v-9c0-2.2,0.7-4,2.1-5.2c1.4-1.2,3.2-1.9,5.2-1.9
			c2,0,3.8,0.6,5.2,1.9c1.4,1.2,2.1,3,2.1,5.2v9c0,2.2-0.7,4-2.1,5.2S141.8,124,139.8,124z M141.9,107.9c0-0.8-0.2-1.4-0.6-1.8
			c-0.4-0.4-0.9-0.6-1.5-0.6c-0.6,0-1.1,0.2-1.5,0.6c-0.4,0.4-0.6,1-0.6,1.8v9c0,0.8,0.2,1.4,0.6,1.7c0.4,0.4,0.9,0.6,1.5,0.6
			c0.6,0,1.1-0.2,1.5-0.6c0.4-0.4,0.6-1,0.6-1.8V107.9z"/>
		<path fill="#1D2088" d="M157.6,124c-2,0-3.8-0.6-5.2-1.9c-1.4-1.2-2.1-3-2.1-5.2v-9c0-2.2,0.7-4,2.1-5.2c1.4-1.2,3.2-1.9,5.2-1.9
			c2,0,3.8,0.6,5.2,1.9c1.4,1.2,2.1,3,2.1,5.2v9c0,2.2-0.7,4-2.1,5.2S159.6,124,157.6,124z M159.7,107.9c0-0.8-0.2-1.4-0.6-1.8
			c-0.4-0.4-0.9-0.6-1.5-0.6c-0.6,0-1.1,0.2-1.5,0.6c-0.4,0.4-0.6,1-0.6,1.8v9c0,0.8,0.2,1.4,0.6,1.7c0.4,0.4,0.9,0.6,1.5,0.6
			c0.6,0,1.1-0.2,1.5-0.6c0.4-0.4,0.6-1,0.6-1.8V107.9z"/>
		<path fill="#1D2088" d="M175.4,124c-2.2,0-4.1-0.6-5.5-1.8c-1.4-1.2-2.2-2.9-2.2-5.2c0-1.2,0.3-2.2,0.8-2.9c0.5-0.7,1.1-1.4,1.8-2
			c-0.7-0.6-1.2-1.2-1.7-1.9c-0.4-0.7-0.7-1.6-0.7-2.7c0-2.1,0.7-3.7,2.2-4.9c1.4-1.2,3.2-1.8,5.3-1.8c2,0,3.8,0.6,5.3,1.8
			c1.5,1.2,2.2,2.9,2.2,4.9c0,1.1-0.2,2-0.7,2.7c-0.5,0.7-1,1.3-1.6,1.9c0.7,0.6,1.3,1.3,1.8,2c0.5,0.7,0.7,1.7,0.7,2.9
			c0,2.3-0.7,4-2.1,5.2C179.5,123.4,177.6,124,175.4,124z M175.4,114.4c-0.7,0-1.2,0.2-1.7,0.7c-0.5,0.5-0.7,1-0.7,1.7
			c0,0.7,0.2,1.2,0.7,1.7c0.5,0.5,1,0.7,1.7,0.7c0.7,0,1.2-0.2,1.7-0.7c0.5-0.5,0.7-1,0.7-1.7c0-0.7-0.2-1.2-0.7-1.7
			C176.6,114.7,176,114.4,175.4,114.4z M175.4,105.5c-0.6,0-1.1,0.2-1.6,0.6c-0.4,0.4-0.6,0.9-0.6,1.6c0,0.6,0.2,1.1,0.6,1.6
			c0.4,0.4,0.9,0.6,1.6,0.6c0.6,0,1.1-0.2,1.6-0.6c0.4-0.4,0.6-0.9,0.6-1.6c0-0.6-0.2-1.1-0.6-1.6
			C176.5,105.7,176,105.5,175.4,105.5z"/>
	</g>
</g>
</svg>
